# xmcd
#
# Track frame offsets:
#	150
#	26404
#	53854
#	85504
#	114904
#	154504
#	189904
#	220054
#	247354
#	284554
#
# Disc length: 4170 seconds
#
# Revision: 1
# Processed by: cddbd v1.5.2PL0 Copyright (c) Steve Scherf et al.
# Submitted via: audiograbber 1.83.01
#
DISCID=8010480a
DTITLE=Eddie Kold Band - Live im Buchcafe
DYEAR=2006
DGENRE=Blues
TTITLE0=Chitlins Con Carne
TTITLE1=Blue Bossa
TTITLE2=Help Me
TTITLE3=Befor You Accuse Me
TTITLE4=Thrill Is Gone
TTITLE5=I'm Ready
TTITLE6=Hoochie Coochie Man
TTITLE7=Howling For My Darling
TTITLE8=Got My Mojo Working
TTITLE9=Encore: Mustang Sally
EXTD=
EXTT0=
EXTT1=
EXTT2=
EXTT3=
EXTT4=
EXTT5=
EXTT6=
EXTT7=
EXTT8=
EXTT9=
PLAYORDER=
